<svg aria-hidden="true" style="position: absolute; width: 0; height: 0; overflow: hidden;" version="1.1" xmlns="http://www.w3.org/2000/svg" xmlns:xlink="http://www.w3.org/1999/xlink">
<defs>

<!-- <symbol id="icon-home" viewBox="0 0 24 24">
<path d="M19.2 10.2L21.036 12.036L19.764 13.308L12 5.544L4.23599 13.308L2.96399 12.036L12 3L16.8 7.8V5.4H19.2V10.2ZM12 7.248L19.2 14.436V21.6H4.79999V14.436L12 7.248ZM14.4 20.4V14.4H9.59999V20.4H14.4Z" />
</symbol> -->

<!-- <symbol id="icon-home" viewBox="0 0 20 20">
<path d="M18.672 11h-1.672v6c0 0.445-0.194 1-1 1h-4v-6h-4v6h-4c-0.806 0-1-0.555-1-1v-6h-1.672c-0.598 0-0.47-0.324-0.060-0.748l8.024-8.032c0.195-0.202 0.451-0.302 0.708-0.312 0.257 0.010 0.513 0.109 0.708 0.312l8.023 8.031c0.411 0.425 0.539 0.749-0.059 0.749z"></path>
</symbol> -->

<!-- <symbol id="icon-home" viewBox="0 0 24 24">
<path d="M2.386 8.211c-0.236 0.184-0.386 0.469-0.386 0.789v11c0 0.828 0.337 1.58 0.879 2.121s1.293 0.879 2.121 0.879h14c0.828 0 1.58-0.337 2.121-0.879s0.879-1.293 0.879-2.121v-11c-0.001-0.3-0.134-0.593-0.386-0.789l-9-7c-0.358-0.275-0.861-0.285-1.228 0zM16 21v-9c0-0.552-0.448-1-1-1h-6c-0.552 0-1 0.448-1 1v9h-3c-0.276 0-0.525-0.111-0.707-0.293s-0.293-0.431-0.293-0.707v-10.511l8-6.222 8 6.222v10.511c0 0.276-0.111 0.525-0.293 0.707s-0.431 0.293-0.707 0.293zM10 21v-8h4v8z"></path>
</symbol> -->

<symbol id="icon-home" viewBox="0 0 24 24">
<path d="M9.984 20.016h-4.969v-8.016h-3l9.984-9 9.984 9h-3v8.016h-4.969v-6h-4.031v6z"></path>
</symbol>

<symbol id="icon-notification" viewBox="0 0 24 24">
<path d="M21.1064 16.3392L19.0594 12.5599V8.625C19.0594 4.69627 15.8631 1.5 11.9344 1.5C8.00562 1.5 4.80936 4.69627 4.80936 8.625V12.5599L2.76223 16.3391C2.6694 16.5105 2.62267 16.703 2.62664 16.8979C2.6306 17.0927 2.68512 17.2832 2.78485 17.4507C2.88458 17.6181 3.0261 17.7568 3.19554 17.8531C3.36499 17.9494 3.55654 18 3.75143 18H7.82651C7.81515 18.1247 7.80941 18.2498 7.80931 18.375C7.80931 19.469 8.24391 20.5182 9.01749 21.2918C9.79108 22.0654 10.8403 22.5 11.9343 22.5C13.0283 22.5 14.0775 22.0654 14.8511 21.2918C15.6247 20.5182 16.0593 19.469 16.0593 18.375C16.0593 18.2484 16.0533 18.1236 16.0421 18H20.1172C20.3121 18 20.5036 17.9493 20.673 17.853C20.8424 17.7567 20.9839 17.6181 21.0836 17.4506C21.1833 17.2832 21.2379 17.0927 21.2418 16.8979C21.2458 16.7031 21.1991 16.5105 21.1062 16.3392H21.1064ZM14.5594 18.375C14.5597 18.7357 14.4856 19.0927 14.3418 19.4235C14.198 19.7543 13.9876 20.052 13.7236 20.2979C13.4596 20.5438 13.1478 20.7326 12.8076 20.8526C12.4675 20.9726 12.1062 21.0212 11.7464 20.9954C11.3865 20.9696 11.0359 20.8698 10.7164 20.7025C10.3968 20.5351 10.1152 20.3036 9.88906 20.0226C9.66294 19.7415 9.49718 19.4168 9.40213 19.0688C9.30707 18.7208 9.28476 18.357 9.33659 18H14.5321C14.5501 18.1242 14.5592 18.2495 14.5594 18.375ZM4.38101 16.5L6.30936 12.9401V8.625C6.30936 7.13316 6.90199 5.70242 7.95688 4.64752C9.01177 3.59263 10.4425 3 11.9344 3C13.4262 3 14.8569 3.59263 15.9118 4.64752C16.9667 5.70242 17.5594 7.13316 17.5594 8.625V12.9401L19.4876 16.5H4.38101Z" />
</symbol>

<symbol id="icon-bookmark" viewBox="0 0 24 24">
<path d="M7.52159 3.59999C7.73223 3.23516 8.03519 2.93219 8.40002 2.72155C8.76486 2.5109 9.17871 2.4 9.59999 2.39999H15C16.1139 2.39999 17.1822 2.84249 17.9698 3.63015C18.7575 4.4178 19.2 5.48608 19.2 6.59999V18.6C19.1999 18.7085 19.1704 18.815 19.1147 18.9081C19.0589 19.0012 18.9789 19.0774 18.8832 19.1286C18.7875 19.1799 18.6797 19.2042 18.5713 19.199C18.4629 19.1938 18.3579 19.1593 18.2676 19.0992L18 18.9216V6.59999C18 5.80434 17.6839 5.04128 17.1213 4.47867C16.5587 3.91606 15.7956 3.59999 15 3.59999H7.52159ZM7.19999 4.79999C6.56347 4.79999 5.95302 5.05285 5.50293 5.50294C5.05284 5.95302 4.79999 6.56347 4.79999 7.19999V21C4.80004 21.1085 4.82954 21.215 4.88532 21.3081C4.94111 21.4012 5.02111 21.4774 5.11679 21.5286C5.21247 21.5799 5.32025 21.6042 5.42866 21.599C5.53706 21.5938 5.64203 21.5593 5.73239 21.4992L10.8 18.1212L15.8676 21.4992C15.9579 21.5593 16.0629 21.5938 16.1713 21.599C16.2797 21.6042 16.3875 21.5799 16.4832 21.5286C16.5789 21.4774 16.6589 21.4012 16.7147 21.3081C16.7704 21.215 16.7999 21.1085 16.8 21V7.19999C16.8 6.56347 16.5471 5.95302 16.097 5.50294C15.647 5.05285 15.0365 4.79999 14.4 4.79999H7.19999ZM5.99999 7.19999C5.99999 6.88173 6.12642 6.57651 6.35146 6.35147C6.5765 6.12642 6.88173 5.99999 7.19999 5.99999H14.4C14.7182 5.99999 15.0235 6.12642 15.2485 6.35147C15.4736 6.57651 15.6 6.88173 15.6 7.19999V19.8792L11.1324 16.9008C11.0339 16.8353 10.9183 16.8003 10.8 16.8003C10.6817 16.8003 10.5661 16.8353 10.4676 16.9008L5.99999 19.8792V7.19999Z" />
</symbol>

<symbol id="icon-notes" viewBox="0 0 24 24">
<path d="M7.19999 2.4H16.8C17.4365 2.4 18.047 2.65286 18.497 3.10295C18.9471 3.55303 19.2 4.16348 19.2 4.8V19.2C19.2 19.8365 18.9471 20.447 18.497 20.8971C18.047 21.3471 17.4365 21.6 16.8 21.6H7.19999C6.56347 21.6 5.95302 21.3471 5.50293 20.8971C5.05284 20.447 4.79999 19.8365 4.79999 19.2V4.8C4.79999 4.16348 5.05284 3.55303 5.50293 3.10295C5.95302 2.65286 6.56347 2.4 7.19999 2.4ZM7.19999 3.6C6.88173 3.6 6.5765 3.72643 6.35146 3.95147C6.12642 4.17652 5.99999 4.48174 5.99999 4.8V19.2C5.99999 19.5183 6.12642 19.8235 6.35146 20.0485C6.5765 20.2736 6.88173 20.4 7.19999 20.4H16.8C17.1182 20.4 17.4235 20.2736 17.6485 20.0485C17.8736 19.8235 18 19.5183 18 19.2V4.8C18 4.48174 17.8736 4.17652 17.6485 3.95147C17.4235 3.72643 17.1182 3.6 16.8 3.6H7.19999ZM15.6 7.8C15.6 7.94043 15.5508 8.07643 15.4609 8.18431C15.371 8.29219 15.2461 8.36512 15.108 8.3904L15 8.4H8.99999C8.85005 8.40028 8.70545 8.34441 8.59465 8.24339C8.48385 8.14238 8.41489 8.00354 8.40134 7.85422C8.38779 7.70489 8.43064 7.55591 8.52145 7.4366C8.61226 7.3173 8.74445 7.23631 8.89199 7.2096L8.99999 7.2H15C15.1591 7.2 15.3117 7.26322 15.4243 7.37574C15.5368 7.48826 15.6 7.64087 15.6 7.8ZM15.6 12C15.6 12.1404 15.5508 12.2764 15.4609 12.3843C15.371 12.4922 15.2461 12.5651 15.108 12.5904L15 12.6H8.99999C8.85005 12.6003 8.70545 12.5444 8.59465 12.4434C8.48385 12.3424 8.41489 12.2035 8.40134 12.0542C8.38779 11.9049 8.43064 11.7559 8.52145 11.6366C8.61226 11.5173 8.74445 11.4363 8.89199 11.4096L8.99999 11.4H15C15.1591 11.4 15.3117 11.4632 15.4243 11.5757C15.5368 11.6883 15.6 11.8409 15.6 12ZM15.6 16.2C15.6 16.3404 15.5508 16.4764 15.4609 16.5843C15.371 16.6922 15.2461 16.7651 15.108 16.7904L15 16.8H8.99999C8.85005 16.8003 8.70545 16.7444 8.59465 16.6434C8.48385 16.5424 8.41489 16.4035 8.40134 16.2542C8.38779 16.1049 8.43064 15.9559 8.52145 15.8366C8.61226 15.7173 8.74445 15.6363 8.89199 15.6096L8.99999 15.6H15C15.1591 15.6 15.3117 15.6632 15.4243 15.7757C15.5368 15.8883 15.6 16.0409 15.6 16.2Z" />
</symbol>

<symbol id="icon-write" viewBox="0 0 24 24">
<path d="M7.72 16.456L9.481 15.948L20.084 5.218C20.1676 5.1323 20.2142 5.01713 20.2136 4.89738C20.2131 4.77764 20.1654 4.66291 20.081 4.578L19.446 3.936C19.405 3.89384 19.3559 3.86027 19.3018 3.83726C19.2477 3.81424 19.1895 3.80225 19.1306 3.80197C19.0718 3.80169 19.0135 3.81313 18.9591 3.83563C18.9048 3.85813 18.8554 3.89123 18.814 3.933L8.239 14.635L7.719 16.455L7.72 16.456ZM20.703 2.664L21.338 3.307C22.214 4.194 22.222 5.625 21.354 6.503L10.428 17.561L6.664 18.645C6.4342 18.7093 6.18826 18.6798 5.98016 18.5631C5.77206 18.4463 5.6188 18.2517 5.554 18.022C5.50578 17.8569 5.50509 17.6815 5.552 17.516L6.647 13.676L17.544 2.647C17.7512 2.43836 17.9979 2.27306 18.2696 2.16075C18.5414 2.04844 18.8328 1.99137 19.1269 1.99286C19.4209 1.99435 19.7117 2.05437 19.9823 2.16943C20.2529 2.28448 20.4979 2.45227 20.703 2.663V2.664ZM9.184 3.817C9.68 3.817 10.082 4.224 10.082 4.726C10.0828 4.84467 10.0602 4.96233 10.0155 5.07225C9.97076 5.18218 9.90481 5.28221 9.82141 5.36663C9.73801 5.45105 9.63879 5.51821 9.52942 5.56426C9.42004 5.61031 9.30267 5.63434 9.184 5.635H5.592C4.6 5.635 3.796 6.449 3.796 7.452V18.358C3.796 19.362 4.6 20.176 5.592 20.176H16.368C17.36 20.176 18.165 19.362 18.165 18.358V14.723C18.165 14.221 18.567 13.814 19.063 13.814C19.559 13.814 19.961 14.221 19.961 14.724V18.358C19.961 20.366 18.352 21.994 16.368 21.994H5.592C3.608 21.994 2 20.366 2 18.358V7.452C2 5.445 3.608 3.817 5.592 3.817H9.184Z" />
</symbol>

<symbol id="icon-search" viewBox="0 0 24 24">
<path d="M16.041 15.856c-0.034 0.026-0.067 0.055-0.099 0.087s-0.060 0.064-0.087 0.099c-1.258 1.213-2.969 1.958-4.855 1.958-1.933 0-3.682-0.782-4.95-2.050s-2.050-3.017-2.050-4.95 0.782-3.682 2.050-4.95 3.017-2.050 4.95-2.050 3.682 0.782 4.95 2.050 2.050 3.017 2.050 4.95c0 1.886-0.745 3.597-1.959 4.856zM21.707 20.293l-3.675-3.675c1.231-1.54 1.968-3.493 1.968-5.618 0-2.485-1.008-4.736-2.636-6.364s-3.879-2.636-6.364-2.636-4.736 1.008-6.364 2.636-2.636 3.879-2.636 6.364 1.008 4.736 2.636 6.364 3.879 2.636 6.364 2.636c2.125 0 4.078-0.737 5.618-1.968l3.675 3.675c0.391 0.391 1.024 0.391 1.414 0s0.391-1.024 0-1.414z"></path>
</symbol>

<symbol id="icon-search1" viewBox="0 0 32 32">
<path d="M17.309 22.016c-0.77 0.616-1.746 0.984-2.809 0.984-2.485 0-4.5-2.015-4.5-4.5s2.015-4.5 4.5-4.5c2.485 0 4.5 2.015 4.5 4.5 0 1.063-0.368 2.039-0.984 2.809l5.348 5.348-0.707 0.707-5.348-5.348zM19.5 3h0.5l6 7v18.009c0 1.093-0.894 1.991-1.997 1.991h-15.005c-1.107 0-1.997-0.899-1.997-2.007v-22.985c0-1.109 0.897-2.007 2.003-2.007h10.497zM19 4h-10.004c-0.55 0-0.996 0.455-0.996 0.995v23.009c0 0.55 0.455 0.995 1 0.995h15c0.552 0 1-0.445 1-0.993v-17.007h-4.002c-1.103 0-1.998-0.887-1.998-2.006v-4.994zM20 4.5v4.491c0 0.557 0.451 1.009 0.997 1.009h3.703l-4.7-5.5zM14.5 22c1.933 0 3.5-1.567 3.5-3.5s-1.567-3.5-3.5-3.5c-1.933 0-3.5 1.567-3.5 3.5s1.567 3.5 3.5 3.5v0z"></path>
</symbol>

<symbol id="icon-spinner" viewBox="0 0 32 32">
<path d="M16 32c-4.274 0-8.292-1.664-11.314-4.686s-4.686-7.040-4.686-11.314c0-3.026 0.849-5.973 2.456-8.522 1.563-2.478 3.771-4.48 6.386-5.791l1.344 2.682c-2.126 1.065-3.922 2.693-5.192 4.708-1.305 2.069-1.994 4.462-1.994 6.922 0 7.168 5.832 13 13 13s13-5.832 13-13c0-2.459-0.69-4.853-1.994-6.922-1.271-2.015-3.066-3.643-5.192-4.708l1.344-2.682c2.615 1.31 4.824 3.313 6.386 5.791 1.607 2.549 2.456 5.495 2.456 8.522 0 4.274-1.664 8.292-4.686 11.314s-7.040 4.686-11.314 4.686z"></path>
</symbol>

<symbol id="icon-close" viewBox="0 0 20 20">
<path d="M10 8.586l-7.071-7.071-1.414 1.414 7.071 7.071-7.071 7.071 1.414 1.414 7.071-7.071 7.071 7.071 1.414-1.414-7.071-7.071 7.071-7.071-1.414-1.414-7.071 7.071z"></path>
</symbol>

<symbol id="icon-login" viewBox="0 0 24 24">
<path d="M11.016 6.984l-1.406 1.406 2.578 2.625h-10.172v1.969h10.172l-2.578 2.625 1.406 1.406 4.969-5.016zM20.016 18.984h-8.016v2.016h8.016q0.797 0 1.383-0.586t0.586-1.43v-13.969q0-0.844-0.586-1.43t-1.383-0.586h-8.016v2.016h8.016v13.969z"></path>
</symbol>

<symbol id="icon-login1" viewBox="0 0 20 20">
<path d="M14 10l-6-5v3h-7v4h7v3l6-5zM17 17h-8v2h8c1.1 0 2-0.9 2-2v-14c0-1.1-0.9-2-2-2h-8v2h8v14z"></path>
</symbol>

<!-- 
<symbol id="icon-bookmark-add" viewBox="0 0 24 24">
<path d="M22.8 6.6C22.8 8.03217 22.2311 9.40568 21.2184 10.4184C20.2057 11.4311 18.8322 12 17.4 12C15.9678 12 14.5943 11.4311 13.5816 10.4184C12.5689 9.40568 12 8.03217 12 6.6C12 5.16783 12.5689 3.79432 13.5816 2.78162C14.5943 1.76892 15.9678 1.2 17.4 1.2C18.8322 1.2 20.2057 1.76892 21.2184 2.78162C22.2311 3.79432 22.8 5.16783 22.8 6.6ZM18 4.2C18 4.04087 17.9368 3.88825 17.8243 3.77573C17.7117 3.66321 17.5591 3.6 17.4 3.6C17.2409 3.6 17.0883 3.66321 16.9757 3.77573C16.8632 3.88825 16.8 4.04087 16.8 4.2V6H15C14.8409 6 14.6883 6.06321 14.5757 6.17573C14.4632 6.28826 14.4 6.44087 14.4 6.6C14.4 6.75913 14.4632 6.91174 14.5757 7.02426C14.6883 7.13678 14.8409 7.2 15 7.2H16.8V9C16.8 9.15913 16.8632 9.31174 16.9757 9.42426C17.0883 9.53678 17.2409 9.6 17.4 9.6C17.5591 9.6 17.7117 9.53678 17.8243 9.42426C17.9368 9.31174 18 9.15913 18 9V7.2H19.8C19.9591 7.2 20.1117 7.13678 20.2243 7.02426C20.3368 6.91174 20.4 6.75913 20.4 6.6C20.4 6.44087 20.3368 6.28826 20.2243 6.17573C20.1117 6.06321 19.9591 6 19.8 6H18V4.2ZM18 19.8216V13.1736C18.406 13.1369 18.8077 13.0626 19.2 12.9516V21C19.1999 21.1106 19.1692 21.2191 19.1114 21.3133C19.0535 21.4076 18.9707 21.4841 18.8721 21.5342C18.7735 21.5844 18.663 21.6063 18.5527 21.5976C18.4424 21.5889 18.3367 21.5498 18.2472 21.4848L12 16.9416L5.7528 21.4848C5.66332 21.5498 5.5576 21.5889 5.44732 21.5976C5.33704 21.6063 5.2265 21.5844 5.12791 21.5342C5.02931 21.4841 4.94651 21.4076 4.88864 21.3133C4.83077 21.2191 4.80009 21.1106 4.8 21V5.4C4.8 4.60435 5.11607 3.84129 5.67868 3.27868C6.24129 2.71607 7.00435 2.4 7.8 2.4H12.3084C12.0028 2.77016 11.7384 3.17254 11.52 3.6H7.8C7.32261 3.6 6.86477 3.78964 6.52721 4.1272C6.18964 4.46477 6 4.92261 6 5.4V19.8216L11.6472 15.7152C11.7497 15.6407 11.8732 15.6005 12 15.6005C12.1268 15.6005 12.2503 15.6407 12.3528 15.7152L18 19.8216Z"/>
</symbol> -->

<symbol id="icon-bookmark-add-o" viewBox="0 0 20 28">
<path d="M18 4h-16v19.406l8-7.672 1.391 1.328 6.609 6.344v-19.406zM18.188 2c0.234 0 0.469 0.047 0.688 0.141 0.688 0.266 1.125 0.906 1.125 1.609v20.141c0 0.703-0.438 1.344-1.125 1.609-0.219 0.094-0.453 0.125-0.688 0.125-0.484 0-0.938-0.172-1.297-0.5l-6.891-6.625-6.891 6.625c-0.359 0.328-0.812 0.516-1.297 0.516-0.234 0-0.469-0.047-0.688-0.141-0.688-0.266-1.125-0.906-1.125-1.609v-20.141c0-0.703 0.438-1.344 1.125-1.609 0.219-0.094 0.453-0.141 0.688-0.141h16.375z"></path>
</symbol>

<symbol id="icon-bookmark-add" viewBox="0 0 20 28">
<path d="M18.188 2c0.234 0 0.469 0.047 0.688 0.141 0.688 0.266 1.125 0.906 1.125 1.609v20.141c0 0.703-0.438 1.344-1.125 1.609-0.219 0.094-0.453 0.125-0.688 0.125-0.484 0-0.938-0.172-1.297-0.5l-6.891-6.625-6.891 6.625c-0.359 0.328-0.812 0.516-1.297 0.516-0.234 0-0.469-0.047-0.688-0.141-0.688-0.266-1.125-0.906-1.125-1.609v-20.141c0-0.703 0.438-1.344 1.125-1.609 0.219-0.094 0.453-0.141 0.688-0.141h16.375z"></path>
</symbol>

<!-- <symbol id="icon-bookmark-add-o" viewBox="0 0 20 20">
<path d="M2 2c0-1.1 0.9-2 2-2h12c1.105 0 2 0.895 2 2v0 18l-8-4-8 4v-18zM4 2v15l6-3 6 3v-15h-12z"></path>
</symbol>

<symbol id="icon-bookmark-add" viewBox="0 0 20 20">
<path d="M2 2c0-1.1 0.9-2 2-2h12c1.105 0 2 0.895 2 2v0 18l-8-4-8 4v-18z"></path>
</symbol> -->

<symbol id="icon-trash" viewBox="0 0 24 24">
<path d="M18 7v13c0 0.276-0.111 0.525-0.293 0.707s-0.431 0.293-0.707 0.293h-10c-0.276 0-0.525-0.111-0.707-0.293s-0.293-0.431-0.293-0.707v-13zM17 5v-1c0-0.828-0.337-1.58-0.879-2.121s-1.293-0.879-2.121-0.879h-4c-0.828 0-1.58 0.337-2.121 0.879s-0.879 1.293-0.879 2.121v1h-4c-0.552 0-1 0.448-1 1s0.448 1 1 1h1v13c0 0.828 0.337 1.58 0.879 2.121s1.293 0.879 2.121 0.879h10c0.828 0 1.58-0.337 2.121-0.879s0.879-1.293 0.879-2.121v-13h1c0.552 0 1-0.448 1-1s-0.448-1-1-1zM9 5v-1c0-0.276 0.111-0.525 0.293-0.707s0.431-0.293 0.707-0.293h4c0.276 0 0.525 0.111 0.707 0.293s0.293 0.431 0.293 0.707v1z"></path>
</symbol>

<symbol id="icon-menu" viewBox="0 0 24 24">
<path d="M3 6h18v2.016h-18v-2.016zM3 12.984v-1.969h18v1.969h-18zM3 18v-2.016h18v2.016h-18z"></path>
</symbol>

<symbol id="icon-person" viewBox="0 0 24 24">
<path d="M12 14.016q2.531 0 5.273 1.102t2.742 2.883v2.016h-16.031v-2.016q0-1.781 2.742-2.883t5.273-1.102zM12 12q-1.641 0-2.813-1.172t-1.172-2.813 1.172-2.836 2.813-1.195 2.813 1.195 1.172 2.836-1.172 2.813-2.813 1.172z"></path>
</symbol>

</defs>
</svg>
